<mxfile host="65bd71144e">
    <diagram id="bYiit0HkzSNfq9MBpLNF" name="Page-1">
        <mxGraphModel dx="2788" dy="2652" grid="1" gridSize="10" guides="1" tooltips="1" connect="1" arrows="1" fold="1" page="1" pageScale="1" pageWidth="850" pageHeight="1100" math="0" shadow="0">
            <root>
                <mxCell id="0"/>
                <mxCell id="1" parent="0"/>
                <object placeholders="1" c4Name="MDC" c4Description="Manual Uploads" label="%c4Name%&#xa;[%c4Type%]&#xa;&#xa;%c4Description%" c4Type="UI" id="27">
                    <mxCell style="rounded=1;whiteSpace=wrap;labelBackgroundColor=none;fillColor=#8C8496;fontColor=#ffffff;align=center;arcSize=10;strokeColor=#736782;metaEdit=1;resizable=0;points=[[0.25,0,0],[0.5,0,0],[0.75,0,0],[1,0.25,0],[1,0.5,0],[1,0.75,0],[0.75,1,0],[0.5,1,0],[0.25,1,0],[0,0.75,0],[0,0.5,0],[0,0.25,0]];fontSize=16;" parent="1" vertex="1">
                        <mxGeometry x="222" y="-100" width="240" height="120" as="geometry"/>
                    </mxCell>
                </object>
                <mxCell id="28" value="" style="group" parent="1" vertex="1" connectable="0">
                    <mxGeometry x="52" y="-590" width="580" height="380" as="geometry"/>
                </mxCell>
                <mxCell id="10" value="" style="rounded=1;whiteSpace=wrap;html=1;fillColor=light-dark(#e2e7ee, #1d293b);strokeColor=#6c8ebf;dashed=1;" parent="28" vertex="1">
                    <mxGeometry width="580" height="380" as="geometry"/>
                </mxCell>
                <mxCell id="11" value="&lt;font style=&quot;color: rgb(0, 0, 255);&quot;&gt;&lt;b&gt;&lt;font style=&quot;font-size: 13px;&quot;&gt;MDC&lt;br&gt;&lt;/font&gt;&lt;/b&gt;&lt;span style=&quot;color: rgb(0, 0, 255);&quot;&gt;UPSTREAM&lt;/span&gt;&lt;b&gt;&lt;font style=&quot;font-size: 13px;&quot;&gt;&lt;/font&gt;&lt;/b&gt;&lt;/font&gt;" style="text;html=1;align=center;verticalAlign=middle;whiteSpace=wrap;rounded=0;" parent="28" vertex="1">
                    <mxGeometry x="40" y="20" width="70" height="30" as="geometry"/>
                </mxCell>
                <mxCell id="18" value="&lt;font&gt;&lt;b style=&quot;&quot;&gt;&lt;font style=&quot;color: rgb(255, 255, 255);&quot;&gt;Branch Examination&lt;/font&gt;&lt;/b&gt;&lt;br&gt;&lt;br&gt;&lt;font style=&quot;color: rgb(255, 255, 255);&quot;&gt;Employee Branch Visitations&lt;/font&gt;&lt;/font&gt;" style="rounded=1;whiteSpace=wrap;html=1;fillColor=#959595;strokeColor=#23445d;" parent="28" vertex="1">
                    <mxGeometry x="155" y="10" width="170" height="70" as="geometry"/>
                </mxCell>
                <mxCell id="19" value="&lt;font&gt;&lt;b style=&quot;&quot;&gt;&lt;font style=&quot;color: rgb(255, 255, 255);&quot;&gt;AML&lt;/font&gt;&lt;/b&gt;&lt;br&gt;&lt;br&gt;&lt;font style=&quot;color: rgb(255, 255, 255);&quot;&gt;Anti Money Laundering&lt;/font&gt;&lt;/font&gt;" style="rounded=1;whiteSpace=wrap;html=1;fillColor=#959595;strokeColor=#23445d;" parent="28" vertex="1">
                    <mxGeometry x="155" y="100" width="170" height="70" as="geometry"/>
                </mxCell>
                <mxCell id="20" value="&lt;font&gt;&lt;b style=&quot;&quot;&gt;&lt;font style=&quot;color: rgb(255, 255, 255);&quot;&gt;SRM&lt;/font&gt;&lt;/b&gt;&lt;br&gt;&lt;br&gt;&lt;font style=&quot;color: rgb(255, 255, 255);&quot;&gt;Supplier Relationsship Manager&lt;/font&gt;&lt;/font&gt;" style="rounded=1;whiteSpace=wrap;html=1;fillColor=#959595;strokeColor=#23445d;" parent="28" vertex="1">
                    <mxGeometry x="155" y="190" width="170" height="70" as="geometry"/>
                </mxCell>
                <mxCell id="21" value="&lt;font&gt;&lt;b style=&quot;&quot;&gt;&lt;font style=&quot;color: rgb(255, 255, 255);&quot;&gt;KYC&lt;/font&gt;&lt;/b&gt;&lt;br&gt;&lt;br&gt;&lt;font style=&quot;color: rgb(255, 255, 255);&quot;&gt;Know Your Customer&lt;/font&gt;&lt;/font&gt;" style="rounded=1;whiteSpace=wrap;html=1;fillColor=#959595;strokeColor=#23445d;" parent="28" vertex="1">
                    <mxGeometry x="155" y="280" width="170" height="70" as="geometry"/>
                </mxCell>
                <mxCell id="22" value="&lt;font&gt;&lt;b style=&quot;&quot;&gt;&lt;font style=&quot;color: rgb(255, 255, 255);&quot;&gt;CRIU&lt;/font&gt;&lt;/b&gt;&lt;br&gt;&lt;br&gt;&lt;font style=&quot;color: rgb(255, 255, 255);&quot;&gt;Client Review &amp;amp; Investigation&lt;/font&gt;&lt;/font&gt;" style="rounded=1;whiteSpace=wrap;html=1;fillColor=#959595;strokeColor=#23445d;" parent="28" vertex="1">
                    <mxGeometry x="340" y="10" width="170" height="70" as="geometry"/>
                </mxCell>
                <mxCell id="23" value="&lt;font&gt;&lt;b style=&quot;&quot;&gt;&lt;font style=&quot;color: rgb(255, 255, 255);&quot;&gt;SAR&lt;br&gt;&lt;/font&gt;&lt;/b&gt;&lt;br&gt;&lt;font style=&quot;color: rgb(255, 255, 255);&quot;&gt;Suspecious Activity Report&lt;/font&gt;&lt;/font&gt;" style="rounded=1;whiteSpace=wrap;html=1;fillColor=#959595;strokeColor=#23445d;" parent="28" vertex="1">
                    <mxGeometry x="340" y="100" width="170" height="70" as="geometry"/>
                </mxCell>
                <mxCell id="24" value="&lt;font&gt;&lt;b style=&quot;&quot;&gt;&lt;font style=&quot;color: rgb(255, 255, 255);&quot;&gt;RTR&lt;br&gt;&lt;/font&gt;&lt;/b&gt;&lt;br&gt;&lt;font style=&quot;color: rgb(255, 255, 255);&quot;&gt;Risk Tiering Report&lt;/font&gt;&lt;/font&gt;" style="rounded=1;whiteSpace=wrap;html=1;fillColor=#959595;strokeColor=#23445d;" parent="28" vertex="1">
                    <mxGeometry x="340" y="190" width="170" height="70" as="geometry"/>
                </mxCell>
                <object placeholders="1" c4Name="Citi Risk &amp; Controls" c4Type="SystemScopeBoundary" c4Application="CRC" label="&lt;font style=&quot;font-size: 16px&quot;&gt;&lt;b&gt;&lt;div style=&quot;text-align: left&quot;&gt;%c4Name%&lt;/div&gt;&lt;/b&gt;&lt;/font&gt;&lt;div style=&quot;text-align: left&quot;&gt;[%c4Application%]&lt;/div&gt;" id="29">
                    <mxCell style="rounded=1;fontSize=11;whiteSpace=wrap;html=1;dashed=1;arcSize=20;labelBackgroundColor=none;align=left;verticalAlign=bottom;labelBorderColor=none;spacingTop=0;spacing=10;dashPattern=8 4;metaEdit=1;rotatable=0;perimeter=rectanglePerimeter;noLabel=0;labelPadding=0;allowArrows=0;connectable=0;expand=0;recursiveResize=0;editable=1;pointerEvents=0;absoluteArcSize=1;points=[[0.25,0,0],[0.5,0,0],[0.75,0,0],[1,0.25,0],[1,0.5,0],[1,0.75,0],[0.75,1,0],[0.5,1,0],[0.25,1,0],[0,0.75,0],[0,0.5,0],[0,0.25,0]];strokeColor=#d6b656;fillColor=#fff2cc;" parent="1" vertex="1">
                        <mxGeometry x="810" y="30" width="420" height="440" as="geometry"/>
                    </mxCell>
                </object>
                <object c4Name="CRC UI" c4Type="Interactive" c4Technology="Angular" label="&lt;font style=&quot;font-size: 16px&quot;&gt;&lt;b&gt;%c4Name%&lt;/b&gt;&lt;/font&gt;&lt;div&gt;[%c4Type%: %c4Technology%]&lt;/div&gt;&lt;br&gt;&lt;div&gt;&lt;font style=&quot;font-size: 11px&quot;&gt;%c4Description%&lt;/font&gt;&lt;/div&gt;" placeholders="1" c4Description="Common UI Supporting various systems" id="31">
                    <mxCell style="rounded=1;whiteSpace=wrap;html=1;labelBackgroundColor=none;fillColor=#63BEF2;fontColor=#ffffff;align=center;arcSize=6;strokeColor=#2086C9;metaEdit=1;resizable=0;points=[[0.25,0,0],[0.5,0,0],[0.75,0,0],[1,0.25,0],[1,0.5,0],[1,0.75,0],[0.75,1,0],[0.5,1,0],[0.25,1,0],[0,0.75,0],[0,0.5,0],[0,0.25,0]];" parent="1" vertex="1">
                        <mxGeometry x="900" y="60" width="240" height="120" as="geometry"/>
                    </mxCell>
                </object>
                <object placeholders="1" c4Name="CRC Service" c4Type="Java" c4Technology="Spring, Hibernate" c4Description="CRC Core Backend" label="&lt;font style=&quot;font-size: 16px&quot;&gt;&lt;b&gt;%c4Name%&lt;/b&gt;&lt;/font&gt;&lt;div&gt;[%c4Type%: %c4Technology%]&lt;/div&gt;&lt;br&gt;&lt;div&gt;&lt;font style=&quot;font-size: 11px&quot;&gt;%c4Description%&lt;/font&gt;&lt;/div&gt;" id="33">
                    <mxCell style="rounded=1;whiteSpace=wrap;html=1;labelBackgroundColor=none;fillColor=#63BEF2;fontColor=#ffffff;align=center;arcSize=6;strokeColor=#2086C9;metaEdit=1;resizable=0;points=[[0.25,0,0],[0.5,0,0],[0.75,0,0],[1,0.25,0],[1,0.5,0],[1,0.75,0],[0.75,1,0],[0.5,1,0],[0.25,1,0],[0,0.75,0],[0,0.5,0],[0,0.25,0]];" parent="1" vertex="1">
                        <mxGeometry x="900" y="260" width="240" height="120" as="geometry"/>
                    </mxCell>
                </object>
                <object placeholders="1" c4Name="CRC DB" c4Type="Relational" c4Technology="Oracle" c4Description="Common DB Across Various Applications" label="&lt;font style=&quot;font-size: 16px&quot;&gt;&lt;b&gt;%c4Name%&lt;/b&gt;&lt;/font&gt;&lt;div&gt;[%c4Type%:&amp;nbsp;%c4Technology%]&lt;/div&gt;&lt;br&gt;&lt;div&gt;&lt;font style=&quot;font-size: 11px&quot;&gt;&lt;font color=&quot;#E6E6E6&quot;&gt;%c4Description%&lt;/font&gt;&lt;/div&gt;" id="34">
                    <mxCell style="shape=cylinder3;size=15;whiteSpace=wrap;html=1;boundedLbl=1;rounded=0;labelBackgroundColor=none;fillColor=#23A2D9;fontSize=12;fontColor=#ffffff;align=center;strokeColor=#0E7DAD;metaEdit=1;points=[[0.5,0,0],[1,0.25,0],[1,0.5,0],[1,0.75,0],[0.5,1,0],[0,0.75,0],[0,0.5,0],[0,0.25,0]];resizable=0;" parent="1" vertex="1">
                        <mxGeometry x="1370" y="265" width="240" height="120" as="geometry"/>
                    </mxCell>
                </object>
                <mxCell id="37" value="" style="endArrow=classic;html=1;exitX=0.5;exitY=1;exitDx=0;exitDy=0;exitPerimeter=0;edgeStyle=elbowEdgeStyle;entryX=0;entryY=0.5;entryDx=0;entryDy=0;entryPerimeter=0;elbow=vertical;" parent="1" target="33" edge="1">
                    <mxGeometry width="50" height="50" relative="1" as="geometry">
                        <mxPoint x="342" y="20" as="sourcePoint"/>
                        <mxPoint x="630" y="360" as="targetPoint"/>
                        <Array as="points">
                            <mxPoint x="630" y="320"/>
                        </Array>
                    </mxGeometry>
                </mxCell>
                <mxCell id="38" value="" style="endArrow=classic;html=1;exitX=0.5;exitY=1;exitDx=0;exitDy=0;entryX=0.499;entryY=0.023;entryDx=0;entryDy=0;entryPerimeter=0;" parent="1" source="10" target="27" edge="1">
                    <mxGeometry width="50" height="50" relative="1" as="geometry">
                        <mxPoint x="892" y="-120" as="sourcePoint"/>
                        <mxPoint x="342" y="-100" as="targetPoint"/>
                    </mxGeometry>
                </mxCell>
                <mxCell id="39" value="&lt;font style=&quot;font-size: 17px;&quot;&gt;&lt;b&gt;CITI Users&lt;/b&gt;&lt;/font&gt;" style="sketch=0;pointerEvents=1;shadow=0;dashed=0;html=1;strokeColor=none;labelPosition=center;verticalLabelPosition=bottom;verticalAlign=top;align=center;fillColor=#FF8000;shape=mxgraph.mscae.intune.user_group" parent="1" vertex="1">
                    <mxGeometry x="425" y="64" width="140" height="100" as="geometry"/>
                </mxCell>
                <mxCell id="40" value="" style="endArrow=classic;html=1;exitX=1.012;exitY=0.559;exitDx=0;exitDy=0;exitPerimeter=0;entryX=0;entryY=0.5;entryDx=0;entryDy=0;entryPerimeter=0;" parent="1" source="39" target="31" edge="1">
                    <mxGeometry width="50" height="50" relative="1" as="geometry">
                        <mxPoint x="680" y="160" as="sourcePoint"/>
                        <mxPoint x="730" y="110" as="targetPoint"/>
                    </mxGeometry>
                </mxCell>
                <mxCell id="52" value="" style="endArrow=classic;startArrow=classic;html=1;dashed=1;dashPattern=8 8;strokeColor=#0066CC;entryX=0.5;entryY=1;entryDx=0;entryDy=0;entryPerimeter=0;exitX=0.5;exitY=0;exitDx=0;exitDy=0;exitPerimeter=0;" parent="1" source="33" target="31" edge="1">
                    <mxGeometry width="50" height="50" relative="1" as="geometry">
                        <mxPoint x="1000" y="250" as="sourcePoint"/>
                        <mxPoint x="1050" y="200" as="targetPoint"/>
                    </mxGeometry>
                </mxCell>
                <mxCell id="53" value="" style="endArrow=classic;startArrow=classic;html=1;dashed=1;dashPattern=8 8;strokeColor=#0066CC;" parent="1" source="33" target="34" edge="1">
                    <mxGeometry width="50" height="50" relative="1" as="geometry">
                        <mxPoint x="1170" y="320" as="sourcePoint"/>
                        <mxPoint x="1170" y="240" as="targetPoint"/>
                    </mxGeometry>
                </mxCell>
                <mxCell id="54" value="" style="group" parent="1" vertex="1" connectable="0">
                    <mxGeometry x="794" y="554" width="450" height="180" as="geometry"/>
                </mxCell>
                <mxCell id="42" value="" style="rounded=1;whiteSpace=wrap;html=1;fillColor=light-dark(#e2e7ee, #1d293b);strokeColor=#6c8ebf;dashed=1;" parent="54" vertex="1">
                    <mxGeometry width="450" height="180" as="geometry"/>
                </mxCell>
                <mxCell id="43" value="&lt;font style=&quot;color: rgb(0, 0, 255);&quot;&gt;&lt;b&gt;&lt;font style=&quot;font-size: 13px;&quot;&gt;SYSTEMS&lt;br&gt;&lt;/font&gt;&lt;/b&gt;&lt;span style=&quot;color: rgb(0, 0, 255);&quot;&gt;DOWNSTREAM&lt;/span&gt;&lt;b&gt;&lt;font style=&quot;font-size: 13px;&quot;&gt;&lt;/font&gt;&lt;/b&gt;&lt;/font&gt;" style="text;html=1;align=center;verticalAlign=middle;whiteSpace=wrap;rounded=0;" parent="54" vertex="1">
                    <mxGeometry x="40" y="20" width="70" height="30" as="geometry"/>
                </mxCell>
                <mxCell id="44" value="&lt;font&gt;&lt;b style=&quot;&quot;&gt;&lt;font style=&quot;color: rgb(255, 255, 255);&quot;&gt;ERMS&lt;/font&gt;&lt;/b&gt;&lt;br&gt;&lt;/font&gt;" style="rounded=1;whiteSpace=wrap;html=1;fillColor=#959595;strokeColor=#23445d;" parent="54" vertex="1">
                    <mxGeometry x="200" y="60" width="170" height="70" as="geometry"/>
                </mxCell>
                <mxCell id="55" value="" style="endArrow=classic;startArrow=classic;html=1;entryX=0.5;entryY=1;entryDx=0;entryDy=0;entryPerimeter=0;" parent="1" source="42" target="33" edge="1">
                    <mxGeometry width="50" height="50" relative="1" as="geometry">
                        <mxPoint x="710" y="770" as="sourcePoint"/>
                        <mxPoint x="760" y="720" as="targetPoint"/>
                    </mxGeometry>
                </mxCell>
                <mxCell id="56" value="&lt;font style=&quot;font-size: 15px;&quot;&gt;CRC&lt;br&gt;Tableau Reports&lt;/font&gt;" style="verticalLabelPosition=bottom;sketch=0;aspect=fixed;html=1;verticalAlign=top;strokeColor=none;align=center;outlineConnect=0;shape=mxgraph.citrix.reporting;" parent="1" vertex="1">
                    <mxGeometry x="1427.61" y="554" width="124.78" height="140" as="geometry"/>
                </mxCell>
                <mxCell id="57" value="" style="endArrow=classic;html=1;exitX=0.5;exitY=1;exitDx=0;exitDy=0;exitPerimeter=0;" parent="1" source="34" target="56" edge="1">
                    <mxGeometry width="50" height="50" relative="1" as="geometry">
                        <mxPoint x="1440" y="770" as="sourcePoint"/>
                        <mxPoint x="1490" y="720" as="targetPoint"/>
                    </mxGeometry>
                </mxCell>
                <mxCell id="59" value="" style="rounded=1;whiteSpace=wrap;html=1;fillColor=light-dark(#e2e7ee, #1d293b);strokeColor=#6c8ebf;dashed=1;container=0;" parent="1" vertex="1">
                    <mxGeometry x="716" y="-590" width="288" height="180" as="geometry"/>
                </mxCell>
                <mxCell id="60" value="&lt;font style=&quot;color: rgb(0, 0, 255);&quot;&gt;&lt;b&gt;&lt;font style=&quot;font-size: 13px;&quot;&gt;SFTP&lt;br&gt;&lt;/font&gt;&lt;/b&gt;&lt;span style=&quot;color: rgb(0, 0, 255);&quot;&gt;UPSTREAM&lt;/span&gt;&lt;b&gt;&lt;font style=&quot;font-size: 13px;&quot;&gt;&lt;/font&gt;&lt;/b&gt;&lt;/font&gt;" style="text;html=1;align=center;verticalAlign=middle;whiteSpace=wrap;rounded=0;container=0;" parent="1" vertex="1">
                    <mxGeometry x="751.0588235294117" y="-572.5" width="61.35294117647059" height="26.25" as="geometry"/>
                </mxCell>
                <mxCell id="61" value="&lt;font&gt;&lt;b style=&quot;&quot;&gt;&lt;font style=&quot;color: rgb(255, 255, 255);&quot;&gt;CEATS&lt;br&gt;&lt;/font&gt;&lt;/b&gt;&lt;font style=&quot;color: rgb(255, 255, 255);&quot;&gt;&lt;br&gt;Client Entertainment &amp;amp; Tickets&lt;/font&gt;&lt;/font&gt;" style="rounded=1;whiteSpace=wrap;html=1;fillColor=#959595;strokeColor=#23445d;container=0;" parent="1" vertex="1">
                    <mxGeometry x="833.4470588235295" y="-575.125" width="149" height="61.25" as="geometry"/>
                </mxCell>
                <mxCell id="65" value="&lt;font&gt;&lt;b style=&quot;&quot;&gt;&lt;font style=&quot;color: rgb(255, 255, 255);&quot;&gt;FINRA&lt;/font&gt;&lt;/b&gt;&lt;br&gt;&lt;br&gt;&lt;font style=&quot;color: rgb(255, 255, 255);&quot;&gt;Licensing &amp;amp; Registration Data&lt;/font&gt;&lt;/font&gt;" style="rounded=1;whiteSpace=wrap;html=1;fillColor=#959595;strokeColor=#23445d;container=0;" parent="1" vertex="1">
                    <mxGeometry x="833.4470588235295" y="-490" width="149" height="61.25" as="geometry"/>
                </mxCell>
                <mxCell id="83" value="" style="rounded=1;whiteSpace=wrap;html=1;fillColor=light-dark(#e2e7ee, #1d293b);strokeColor=#6c8ebf;dashed=1;container=0;" parent="1" vertex="1">
                    <mxGeometry x="884" y="-400" width="288" height="180" as="geometry"/>
                </mxCell>
                <mxCell id="84" value="&lt;font style=&quot;color: rgb(0, 0, 255);&quot;&gt;&lt;b&gt;&lt;font style=&quot;font-size: 13px;&quot;&gt;KAFKA&lt;br&gt;&lt;/font&gt;&lt;/b&gt;&lt;span style=&quot;color: rgb(0, 0, 255);&quot;&gt;UPSTREAM&lt;/span&gt;&lt;b&gt;&lt;font style=&quot;font-size: 13px;&quot;&gt;&lt;/font&gt;&lt;/b&gt;&lt;/font&gt;" style="text;html=1;align=center;verticalAlign=middle;whiteSpace=wrap;rounded=0;container=0;" parent="1" vertex="1">
                    <mxGeometry x="919.0588235294117" y="-382.5" width="61.35294117647059" height="26.25" as="geometry"/>
                </mxCell>
                <mxCell id="85" value="&lt;font&gt;&lt;b style=&quot;&quot;&gt;&lt;font style=&quot;color: rgb(255, 255, 255);&quot;&gt;ERMS&lt;/font&gt;&lt;/b&gt;&lt;br&gt;&lt;br&gt;&lt;font style=&quot;color: rgb(255, 255, 255);&quot;&gt;Enterprise Risk &lt;br&gt;Management System&lt;/font&gt;&lt;/font&gt;" style="rounded=1;whiteSpace=wrap;html=1;fillColor=#959595;strokeColor=#23445d;container=0;" parent="1" vertex="1">
                    <mxGeometry x="1001.4470588235295" y="-385.125" width="149" height="61.25" as="geometry"/>
                </mxCell>
                <mxCell id="86" value="&lt;font&gt;&lt;b style=&quot;&quot;&gt;&lt;font style=&quot;color: rgb(255, 255, 255);&quot;&gt;MCA&lt;/font&gt;&lt;/b&gt;&lt;br&gt;&lt;br&gt;&lt;font style=&quot;color: rgb(255, 255, 255);&quot;&gt;Manager Control Assessment&lt;/font&gt;&lt;/font&gt;" style="rounded=1;whiteSpace=wrap;html=1;fillColor=#959595;strokeColor=#23445d;container=0;" parent="1" vertex="1">
                    <mxGeometry x="1001.4470588235295" y="-300" width="149" height="61.25" as="geometry"/>
                </mxCell>
                <mxCell id="87" value="" style="rounded=1;whiteSpace=wrap;html=1;fillColor=light-dark(#e2e7ee, #1d293b);strokeColor=#6c8ebf;dashed=1;container=0;" parent="1" vertex="1">
                    <mxGeometry x="1014" y="-590" width="288" height="180" as="geometry"/>
                </mxCell>
                <mxCell id="88" value="&lt;font style=&quot;color: rgb(0, 0, 255);&quot;&gt;&lt;b&gt;&lt;font style=&quot;font-size: 13px;&quot;&gt;API / HTTPS&lt;br&gt;&lt;/font&gt;&lt;/b&gt;&lt;span style=&quot;color: rgb(0, 0, 255);&quot;&gt;UPSTREAM&lt;/span&gt;&lt;b&gt;&lt;font style=&quot;font-size: 13px;&quot;&gt;&lt;/font&gt;&lt;/b&gt;&lt;/font&gt;" style="text;html=1;align=center;verticalAlign=middle;whiteSpace=wrap;rounded=0;container=0;" parent="1" vertex="1">
                    <mxGeometry x="1034" y="-576" width="90" height="26.25" as="geometry"/>
                </mxCell>
                <mxCell id="89" value="&lt;font&gt;&lt;b style=&quot;&quot;&gt;&lt;font style=&quot;color: rgb(255, 255, 255);&quot;&gt;BWS&lt;/font&gt;&lt;/b&gt;&lt;br&gt;&lt;br&gt;&lt;font style=&quot;color: rgb(255, 255, 255);&quot;&gt;Breaches Waivers Dispensations&lt;/font&gt;&lt;/font&gt;" style="rounded=1;whiteSpace=wrap;html=1;fillColor=#959595;strokeColor=#23445d;container=0;" parent="1" vertex="1">
                    <mxGeometry x="1131.4470588235295" y="-575.125" width="149" height="61.25" as="geometry"/>
                </mxCell>
                <mxCell id="90" value="&lt;font&gt;&lt;b style=&quot;&quot;&gt;&lt;font style=&quot;color: rgb(255, 255, 255);&quot;&gt;iCAPS&lt;br&gt;&lt;/font&gt;&lt;/b&gt;&lt;br&gt;&lt;font style=&quot;color: rgb(255, 255, 255);&quot;&gt;Issue &amp;amp; CAP &lt;br&gt;Management System&lt;/font&gt;&lt;/font&gt;" style="rounded=1;whiteSpace=wrap;html=1;fillColor=#959595;strokeColor=#23445d;container=0;" parent="1" vertex="1">
                    <mxGeometry x="1131.4470588235295" y="-490" width="149" height="61.25" as="geometry"/>
                </mxCell>
                <mxCell id="95" value="" style="endArrow=classic;html=1;exitX=0.511;exitY=1.004;exitDx=0;exitDy=0;exitPerimeter=0;" parent="1" source="83" edge="1">
                    <mxGeometry width="50" height="50" relative="1" as="geometry">
                        <mxPoint x="920" y="-230" as="sourcePoint"/>
                        <mxPoint x="1030" y="30" as="targetPoint"/>
                    </mxGeometry>
                </mxCell>
                <mxCell id="96" value="" style="endArrow=classic;html=1;exitX=0;exitY=0.5;exitDx=0;exitDy=0;edgeStyle=orthogonalEdgeStyle;elbow=vertical;" parent="1" source="59" edge="1">
                    <mxGeometry width="50" height="50" relative="1" as="geometry">
                        <mxPoint x="974" y="-210" as="sourcePoint"/>
                        <mxPoint x="1020" y="30" as="targetPoint"/>
                    </mxGeometry>
                </mxCell>
                <mxCell id="97" value="" style="endArrow=classic;html=1;exitX=1;exitY=0.5;exitDx=0;exitDy=0;edgeStyle=orthogonalEdgeStyle;" parent="1" source="87" edge="1">
                    <mxGeometry width="50" height="50" relative="1" as="geometry">
                        <mxPoint x="1380" y="-430" as="sourcePoint"/>
                        <mxPoint x="1040" y="30" as="targetPoint"/>
                        <Array as="points">
                            <mxPoint x="1340" y="-500"/>
                            <mxPoint x="1340" y="-190"/>
                            <mxPoint x="1040" y="-190"/>
                        </Array>
                    </mxGeometry>
                </mxCell>
                <mxCell id="109" value="" style="endArrow=classic;html=1;exitX=1;exitY=0.5;exitDx=0;exitDy=0;exitPerimeter=0;entryX=0.5;entryY=0;entryDx=0;entryDy=0;edgeStyle=orthogonalEdgeStyle;startArrow=classicThin;startFill=1;dashed=1;strokeColor=#0066CC;" parent="1" source="34" target="99" edge="1">
                    <mxGeometry width="50" height="50" relative="1" as="geometry">
                        <mxPoint x="1500" y="395" as="sourcePoint"/>
                        <mxPoint x="1500" y="740" as="targetPoint"/>
                    </mxGeometry>
                </mxCell>
                <object placeholders="1" c4Name="Abinitio" c4Type="Data / ETL" c4Description="Abinitio System" label="%c4Name%&#xa;[%c4Type%]&#xa;&#xa;%c4Description%" id="110">
                    <mxCell style="rounded=1;whiteSpace=wrap;labelBackgroundColor=none;fillColor=#8C8496;fontColor=#ffffff;align=center;arcSize=10;strokeColor=#736782;metaEdit=1;resizable=0;points=[[0.25,0,0],[0.5,0,0],[0.75,0,0],[1,0.25,0],[1,0.5,0],[1,0.75,0],[0.75,1,0],[0.5,1,0],[0.25,1,0],[0,0.75,0],[0,0.5,0],[0,0.25,0]];fontStyle=0;labelBorderColor=none;textShadow=0;fontSize=16;" parent="1" vertex="1">
                        <mxGeometry x="1375" y="-94" width="240" height="120" as="geometry"/>
                    </mxCell>
                </object>
                <mxCell id="111" value="" style="endArrow=classic;html=1;exitX=0.515;exitY=-0.014;exitDx=0;exitDy=0;exitPerimeter=0;entryX=0.5;entryY=1;entryDx=0;entryDy=0;startArrow=classicThin;startFill=1;dashed=1;strokeColor=#0066CC;entryPerimeter=0;" parent="1" source="34" target="110" edge="1">
                    <mxGeometry width="50" height="50" relative="1" as="geometry">
                        <mxPoint x="1620" y="335" as="sourcePoint"/>
                        <mxPoint x="2005" y="730" as="targetPoint"/>
                    </mxGeometry>
                </mxCell>
                <mxCell id="216" value="" style="group" vertex="1" connectable="0" parent="1">
                    <mxGeometry x="1660" y="550" width="550" height="210" as="geometry"/>
                </mxCell>
                <mxCell id="99" value="" style="rounded=1;whiteSpace=wrap;html=1;fillColor=light-dark(#e2e7ee, #1d293b);strokeColor=#6c8ebf;dashed=1;" parent="216" vertex="1">
                    <mxGeometry width="550" height="210" as="geometry"/>
                </mxCell>
                <mxCell id="100" value="&lt;font style=&quot;color: rgb(0, 0, 255);&quot;&gt;&lt;b&gt;&lt;font style=&quot;font-size: 13px;&quot;&gt;DATA&lt;br&gt;&lt;/font&gt;&lt;/b&gt;&lt;span style=&quot;color: rgb(0, 0, 255);&quot;&gt;DOWNSTREAM&lt;/span&gt;&lt;b&gt;&lt;font style=&quot;font-size: 13px;&quot;&gt;&lt;/font&gt;&lt;/b&gt;&lt;/font&gt;" style="text;html=1;align=center;verticalAlign=middle;whiteSpace=wrap;rounded=0;" parent="216" vertex="1">
                    <mxGeometry x="40" y="20" width="70" height="30" as="geometry"/>
                </mxCell>
                <mxCell id="105" value="&lt;font&gt;&lt;b style=&quot;&quot;&gt;&lt;font style=&quot;color: rgb(255, 255, 255);&quot;&gt;REGMMT&lt;/font&gt;&lt;/b&gt;&lt;br&gt;&lt;br&gt;&lt;font style=&quot;color: rgb(255, 255, 255);&quot;&gt;Regulatory Management&lt;/font&gt;&lt;/font&gt;" style="rounded=1;whiteSpace=wrap;html=1;fillColor=#959595;strokeColor=#23445d;container=0;" parent="216" vertex="1">
                    <mxGeometry x="189.9970588235292" y="30" width="149" height="61.25" as="geometry"/>
                </mxCell>
                <mxCell id="106" value="&lt;font&gt;&lt;b style=&quot;&quot;&gt;&lt;font style=&quot;color: rgb(255, 255, 255);&quot;&gt;BREX - CRC&lt;/font&gt;&lt;/b&gt;&lt;br&gt;&lt;br&gt;&lt;font style=&quot;color: rgb(255, 255, 255);&quot;&gt;Branch Exam &lt;br&gt;Questionare Data&lt;/font&gt;&lt;/font&gt;" style="rounded=1;whiteSpace=wrap;html=1;fillColor=#959595;strokeColor=#23445d;container=0;" parent="216" vertex="1">
                    <mxGeometry x="359.9970588235292" y="30" width="149" height="61.25" as="geometry"/>
                </mxCell>
                <mxCell id="107" value="&lt;font&gt;&lt;b style=&quot;&quot;&gt;&lt;font style=&quot;color: rgb(255, 255, 255);&quot;&gt;GLOBAL HR Data&lt;/font&gt;&lt;/b&gt;&lt;br&gt;&lt;br&gt;&lt;font style=&quot;color: rgb(255, 255, 255);&quot;&gt;Employee Data&lt;/font&gt;&lt;/font&gt;" style="rounded=1;whiteSpace=wrap;html=1;fillColor=#959595;strokeColor=#23445d;container=0;" parent="216" vertex="1">
                    <mxGeometry x="189.9970588235292" y="120" width="149" height="61.25" as="geometry"/>
                </mxCell>
                <mxCell id="108" value="&lt;font style=&quot;font-size: 10px;&quot;&gt;&lt;b style=&quot;&quot;&gt;&lt;font style=&quot;color: rgb(255, 255, 255);&quot;&gt;Compliance Testing CRC&lt;/font&gt;&lt;/b&gt;&lt;br&gt;&lt;br&gt;&lt;font style=&quot;color: rgb(255, 255, 255);&quot;&gt;Mapping Details for BREX &amp;amp; FINRA&lt;/font&gt;&lt;/font&gt;" style="rounded=1;whiteSpace=wrap;html=1;fillColor=#959595;strokeColor=#23445d;container=0;" parent="216" vertex="1">
                    <mxGeometry x="359.9970588235292" y="120" width="149" height="61.25" as="geometry"/>
                </mxCell>
                <mxCell id="217" value="" style="group" vertex="1" connectable="0" parent="1">
                    <mxGeometry x="1710" y="-970" width="1940" height="1260" as="geometry"/>
                </mxCell>
                <mxCell id="113" value="" style="rounded=1;whiteSpace=wrap;html=1;fillColor=light-dark(#e2e7ee, #1d293b);strokeColor=#6c8ebf;dashed=1;" parent="217" vertex="1">
                    <mxGeometry width="1940" height="1260" as="geometry"/>
                </mxCell>
                <mxCell id="114" value="&lt;font style=&quot;color: rgb(0, 0, 255);&quot;&gt;&lt;b&gt;&lt;font&gt;ETL&lt;br&gt;&lt;/font&gt;&lt;/b&gt;&lt;span style=&quot;color: rgb(0, 0, 255);&quot;&gt;UPSTREAM&lt;/span&gt;&lt;b&gt;&lt;font&gt;&lt;/font&gt;&lt;/b&gt;&lt;/font&gt;" style="text;html=1;align=center;verticalAlign=middle;whiteSpace=wrap;rounded=0;fontSize=16;" parent="217" vertex="1">
                    <mxGeometry x="80" y="75.81999999999994" width="70" height="30" as="geometry"/>
                </mxCell>
                <mxCell id="128" value="" style="group" parent="217" vertex="1" connectable="0">
                    <mxGeometry x="1010" y="36" width="270" height="133.88" as="geometry"/>
                </mxCell>
                <mxCell id="122" value="" style="rounded=1;whiteSpace=wrap;html=1;fillColor=#E3F9E2;strokeColor=#82b366;dashed=1;" parent="128" vertex="1">
                    <mxGeometry width="270" height="133.88" as="geometry"/>
                </mxCell>
                <mxCell id="121" value="&lt;font&gt;&lt;b style=&quot;&quot;&gt;&lt;font style=&quot;color: rgb(255, 255, 255);&quot;&gt;Excel&lt;br&gt;&lt;/font&gt;&lt;/b&gt;&lt;br&gt;&lt;font style=&quot;color: rgb(255, 255, 255);&quot;&gt;Manual Tracker&lt;/font&gt;&lt;/font&gt;" style="rounded=1;whiteSpace=wrap;html=1;fillColor=#959595;strokeColor=#23445d;" parent="128" vertex="1">
                    <mxGeometry x="80" y="40" width="170" height="70" as="geometry"/>
                </mxCell>
                <mxCell id="123" value="&lt;font style=&quot;color: rgb(0, 0, 255);&quot;&gt;&lt;b&gt;&lt;font style=&quot;font-size: 13px;&quot;&gt;BANKING&lt;/font&gt;&lt;/b&gt;&lt;br&gt;&lt;/font&gt;" style="text;html=1;align=center;verticalAlign=middle;whiteSpace=wrap;rounded=0;" parent="128" vertex="1">
                    <mxGeometry x="10" y="10" width="70" height="30" as="geometry"/>
                </mxCell>
                <mxCell id="129" value="" style="group" parent="217" vertex="1" connectable="0">
                    <mxGeometry x="1010" y="455.8800000000001" width="270" height="133.88" as="geometry"/>
                </mxCell>
                <mxCell id="130" value="" style="rounded=1;whiteSpace=wrap;html=1;fillColor=#E3F9E2;strokeColor=#82b366;dashed=1;" parent="129" vertex="1">
                    <mxGeometry width="270" height="133.88" as="geometry"/>
                </mxCell>
                <mxCell id="131" value="&lt;font&gt;&lt;b style=&quot;&quot;&gt;&lt;font style=&quot;color: rgb(255, 255, 255);&quot;&gt;33404&lt;br&gt;&lt;/font&gt;&lt;/b&gt;&lt;br&gt;&lt;font style=&quot;color: rgb(255, 255, 255);&quot;&gt;Client Insight&lt;/font&gt;&lt;/font&gt;" style="rounded=1;whiteSpace=wrap;html=1;fillColor=#959595;strokeColor=#23445d;" parent="129" vertex="1">
                    <mxGeometry x="80" y="40" width="170" height="70" as="geometry"/>
                </mxCell>
                <mxCell id="132" value="&lt;font style=&quot;color: rgb(0, 0, 255);&quot;&gt;&lt;b&gt;&lt;font style=&quot;font-size: 13px;&quot;&gt;Service Securities&lt;/font&gt;&lt;/b&gt;&lt;br&gt;&lt;/font&gt;" style="text;html=1;align=center;verticalAlign=middle;whiteSpace=wrap;rounded=0;" parent="129" vertex="1">
                    <mxGeometry x="10" y="10" width="70" height="30" as="geometry"/>
                </mxCell>
                <mxCell id="134" value="" style="rounded=1;whiteSpace=wrap;html=1;fillColor=#E3F9E2;strokeColor=#82b366;dashed=1;" parent="217" vertex="1">
                    <mxGeometry x="710" y="26.11999999999989" width="270" height="563.88" as="geometry"/>
                </mxCell>
                <mxCell id="135" value="&lt;font style=&quot;color: rgb(0, 0, 255);&quot;&gt;&lt;b&gt;&lt;font style=&quot;font-size: 13px;&quot;&gt;Services TTS&lt;/font&gt;&lt;/b&gt;&lt;br&gt;&lt;/font&gt;" style="text;html=1;align=center;verticalAlign=middle;whiteSpace=wrap;rounded=0;" parent="217" vertex="1">
                    <mxGeometry x="730" y="55" width="70" height="30" as="geometry"/>
                </mxCell>
                <mxCell id="136" value="&lt;font&gt;&lt;b style=&quot;&quot;&gt;&lt;font style=&quot;color: rgb(255, 255, 255);&quot;&gt;160167&lt;br&gt;&lt;/font&gt;&lt;/b&gt;&lt;br&gt;&lt;font style=&quot;color: rgb(255, 255, 255);&quot;&gt;CEATS&lt;/font&gt;&lt;/font&gt;" style="rounded=1;whiteSpace=wrap;html=1;fillColor=#959595;strokeColor=#23445d;" parent="217" vertex="1">
                    <mxGeometry x="790" y="76.11999999999989" width="170" height="70" as="geometry"/>
                </mxCell>
                <mxCell id="137" value="&lt;font&gt;&lt;b style=&quot;&quot;&gt;&lt;font style=&quot;color: rgb(255, 255, 255);&quot;&gt;33844&lt;br&gt;&lt;/font&gt;&lt;/b&gt;&lt;font style=&quot;color: rgb(255, 255, 255);&quot;&gt;&lt;br&gt;TRIMS&lt;/font&gt;&lt;/font&gt;" style="rounded=1;whiteSpace=wrap;html=1;fillColor=#959595;strokeColor=#23445d;" parent="217" vertex="1">
                    <mxGeometry x="790" y="161.25" width="170" height="70" as="geometry"/>
                </mxCell>
                <mxCell id="138" value="&lt;font&gt;&lt;b style=&quot;&quot;&gt;&lt;font style=&quot;color: rgb(255, 255, 255);&quot;&gt;40006&lt;br&gt;&lt;/font&gt;&lt;/b&gt;&lt;br&gt;&lt;font style=&quot;color: rgb(255, 255, 255);&quot;&gt;FlexCube CEEMEA&lt;/font&gt;&lt;/font&gt;" style="rounded=1;whiteSpace=wrap;html=1;fillColor=#959595;strokeColor=#23445d;" parent="217" vertex="1">
                    <mxGeometry x="790" y="245" width="170" height="70" as="geometry"/>
                </mxCell>
                <mxCell id="139" value="&lt;font&gt;&lt;b style=&quot;&quot;&gt;&lt;font style=&quot;color: rgb(255, 255, 255);&quot;&gt;149683&lt;br&gt;&lt;/font&gt;&lt;/b&gt;&lt;br&gt;&lt;font style=&quot;color: rgb(255, 255, 255);&quot;&gt;Basic Cosmos&lt;/font&gt;&lt;/font&gt;" style="rounded=1;whiteSpace=wrap;html=1;fillColor=#959595;strokeColor=#23445d;" parent="217" vertex="1">
                    <mxGeometry x="790" y="326.1199999999999" width="170" height="70" as="geometry"/>
                </mxCell>
                <mxCell id="140" value="&lt;font&gt;&lt;b style=&quot;&quot;&gt;&lt;font style=&quot;color: rgb(255, 255, 255);&quot;&gt;164139&lt;br&gt;&lt;/font&gt;&lt;/b&gt;&lt;font style=&quot;color: rgb(255, 255, 255);&quot;&gt;&lt;br&gt;FlexCube&lt;/font&gt;&lt;/font&gt;" style="rounded=1;whiteSpace=wrap;html=1;fillColor=#959595;strokeColor=#23445d;" parent="217" vertex="1">
                    <mxGeometry x="790" y="410" width="170" height="70" as="geometry"/>
                </mxCell>
                <mxCell id="141" value="&lt;font&gt;&lt;b style=&quot;&quot;&gt;&lt;font style=&quot;color: rgb(255, 255, 255);&quot;&gt;173807&lt;br&gt;&lt;/font&gt;&lt;/b&gt;&lt;br&gt;&lt;font style=&quot;color: rgb(255, 255, 255);&quot;&gt;STars / PACT&lt;/font&gt;&lt;/font&gt;" style="rounded=1;whiteSpace=wrap;html=1;fillColor=#959595;strokeColor=#23445d;" parent="217" vertex="1">
                    <mxGeometry x="790" y="495" width="170" height="70" as="geometry"/>
                </mxCell>
                <mxCell id="142" value="" style="group" parent="217" vertex="1" connectable="0">
                    <mxGeometry x="1010" y="199.8800000000001" width="270" height="227.76" as="geometry"/>
                </mxCell>
                <mxCell id="124" value="" style="rounded=1;whiteSpace=wrap;html=1;fillColor=#E3F9E2;strokeColor=#82b366;dashed=1;" parent="142" vertex="1">
                    <mxGeometry width="270" height="227.76" as="geometry"/>
                </mxCell>
                <mxCell id="125" value="&lt;font style=&quot;color: rgb(0, 0, 255);&quot;&gt;&lt;b&gt;&lt;font style=&quot;font-size: 13px;&quot;&gt;MARKETS&lt;/font&gt;&lt;/b&gt;&lt;br&gt;&lt;/font&gt;" style="text;html=1;align=center;verticalAlign=middle;whiteSpace=wrap;rounded=0;" parent="142" vertex="1">
                    <mxGeometry x="10" y="11.939999999999998" width="70" height="30" as="geometry"/>
                </mxCell>
                <mxCell id="126" value="&lt;font&gt;&lt;b style=&quot;&quot;&gt;&lt;font style=&quot;color: rgb(255, 255, 255);&quot;&gt;164758&lt;br&gt;&lt;/font&gt;&lt;/b&gt;&lt;br&gt;&lt;font style=&quot;color: rgb(255, 255, 255);&quot;&gt;Volcker Aggregator&lt;/font&gt;&lt;/font&gt;" style="rounded=1;whiteSpace=wrap;html=1;fillColor=#959595;strokeColor=#23445d;" parent="142" vertex="1">
                    <mxGeometry x="80" y="39.56999999999999" width="170" height="70" as="geometry"/>
                </mxCell>
                <mxCell id="133" value="&lt;font&gt;&lt;b style=&quot;&quot;&gt;&lt;font style=&quot;color: rgb(255, 255, 255);&quot;&gt;33404&lt;br&gt;&lt;/font&gt;&lt;/b&gt;&lt;br&gt;&lt;font style=&quot;color: rgb(255, 255, 255);&quot;&gt;Client Insight&lt;/font&gt;&lt;/font&gt;" style="rounded=1;whiteSpace=wrap;html=1;fillColor=#959595;strokeColor=#23445d;" parent="142" vertex="1">
                    <mxGeometry x="80" y="131.94" width="170" height="70" as="geometry"/>
                </mxCell>
                <mxCell id="144" value="" style="rounded=1;whiteSpace=wrap;html=1;fillColor=#E3F9E2;strokeColor=#82b366;dashed=1;" parent="217" vertex="1">
                    <mxGeometry x="210" y="31.820000000000164" width="471" height="563.88" as="geometry"/>
                </mxCell>
                <mxCell id="145" value="&lt;font style=&quot;color: rgb(0, 0, 255);&quot;&gt;&lt;b&gt;&lt;font style=&quot;font-size: 13px;&quot;&gt;USPB&lt;/font&gt;&lt;/b&gt;&lt;br&gt;&lt;/font&gt;" style="text;html=1;align=center;verticalAlign=middle;whiteSpace=wrap;rounded=0;" parent="217" vertex="1">
                    <mxGeometry x="230" y="54.700000000000045" width="70" height="30" as="geometry"/>
                </mxCell>
                <mxCell id="146" value="&lt;font&gt;&lt;b style=&quot;&quot;&gt;&lt;font style=&quot;color: rgb(255, 255, 255);&quot;&gt;168988&lt;br&gt;&lt;/font&gt;&lt;/b&gt;&lt;br&gt;&lt;font style=&quot;color: rgb(255, 255, 255);&quot;&gt;CPPD&lt;/font&gt;&lt;/font&gt;" style="rounded=1;whiteSpace=wrap;html=1;fillColor=#959595;strokeColor=#23445d;" parent="217" vertex="1">
                    <mxGeometry x="290" y="75.81999999999994" width="170" height="70" as="geometry"/>
                </mxCell>
                <mxCell id="147" value="&lt;font&gt;&lt;b style=&quot;&quot;&gt;&lt;font style=&quot;color: rgb(255, 255, 255);&quot;&gt;153292&lt;br&gt;&lt;/font&gt;&lt;/b&gt;&lt;font style=&quot;color: rgb(255, 255, 255);&quot;&gt;&lt;br&gt;First Disputes&lt;/font&gt;&lt;/font&gt;" style="rounded=1;whiteSpace=wrap;html=1;fillColor=#959595;strokeColor=#23445d;" parent="217" vertex="1">
                    <mxGeometry x="290" y="160.95000000000005" width="170" height="70" as="geometry"/>
                </mxCell>
                <mxCell id="148" value="&lt;font&gt;&lt;b style=&quot;&quot;&gt;&lt;font style=&quot;color: rgb(255, 255, 255);&quot;&gt;174310&lt;br&gt;&lt;/font&gt;&lt;/b&gt;&lt;br&gt;&lt;font style=&quot;color: rgb(255, 255, 255);&quot;&gt;CENLAR FSB&lt;/font&gt;&lt;/font&gt;" style="rounded=1;whiteSpace=wrap;html=1;fillColor=#959595;strokeColor=#23445d;" parent="217" vertex="1">
                    <mxGeometry x="290" y="244.70000000000005" width="170" height="70" as="geometry"/>
                </mxCell>
                <mxCell id="149" value="&lt;font&gt;&lt;b style=&quot;&quot;&gt;&lt;font style=&quot;color: rgb(255, 255, 255);&quot;&gt;41595&lt;/font&gt;&lt;/b&gt;&lt;/font&gt;" style="rounded=1;whiteSpace=wrap;html=1;fillColor=#959595;strokeColor=#23445d;" parent="217" vertex="1">
                    <mxGeometry x="290" y="325.81999999999994" width="170" height="70" as="geometry"/>
                </mxCell>
                <mxCell id="150" value="&lt;font&gt;&lt;b style=&quot;&quot;&gt;&lt;font style=&quot;color: rgb(255, 255, 255);&quot;&gt;155527&lt;br&gt;&lt;/font&gt;&lt;/b&gt;&lt;font style=&quot;color: rgb(255, 255, 255);&quot;&gt;&lt;br&gt;Pegarules Disputes &lt;br&gt;Processing System&lt;/font&gt;&lt;/font&gt;" style="rounded=1;whiteSpace=wrap;html=1;fillColor=#959595;strokeColor=#23445d;" parent="217" vertex="1">
                    <mxGeometry x="290" y="409.70000000000005" width="170" height="70" as="geometry"/>
                </mxCell>
                <mxCell id="151" value="&lt;font&gt;&lt;b style=&quot;&quot;&gt;&lt;font style=&quot;color: rgb(255, 255, 255);&quot;&gt;167835&lt;br&gt;&lt;/font&gt;&lt;/b&gt;&lt;br&gt;&lt;font style=&quot;color: rgb(255, 255, 255);&quot;&gt;Credit Initiation &lt;br&gt;Citi Retail Services&lt;/font&gt;&lt;/font&gt;" style="rounded=1;whiteSpace=wrap;html=1;fillColor=#959595;strokeColor=#23445d;" parent="217" vertex="1">
                    <mxGeometry x="290" y="494.70000000000005" width="170" height="70" as="geometry"/>
                </mxCell>
                <mxCell id="152" value="&lt;font&gt;&lt;b style=&quot;&quot;&gt;&lt;font style=&quot;color: rgb(255, 255, 255);&quot;&gt;174616&lt;br&gt;&lt;/font&gt;&lt;/b&gt;&lt;br&gt;&lt;font style=&quot;color: rgb(255, 255, 255);&quot;&gt;Archer DPC&lt;/font&gt;&lt;/font&gt;" style="rounded=1;whiteSpace=wrap;html=1;fillColor=#959595;strokeColor=#23445d;" parent="217" vertex="1">
                    <mxGeometry x="481" y="75.81999999999994" width="170" height="70" as="geometry"/>
                </mxCell>
                <mxCell id="153" value="&lt;font&gt;&lt;b style=&quot;&quot;&gt;&lt;font style=&quot;color: rgb(255, 255, 255);&quot;&gt;153529&lt;br&gt;&lt;/font&gt;&lt;/b&gt;&lt;font style=&quot;color: rgb(255, 255, 255);&quot;&gt;&lt;br&gt;Fiserv Core Product / Optics&lt;/font&gt;&lt;/font&gt;" style="rounded=1;whiteSpace=wrap;html=1;fillColor=#959595;strokeColor=#23445d;" parent="217" vertex="1">
                    <mxGeometry x="481" y="160.95000000000005" width="170" height="70" as="geometry"/>
                </mxCell>
                <mxCell id="154" value="&lt;font&gt;&lt;b style=&quot;&quot;&gt;&lt;font style=&quot;color: rgb(255, 255, 255);&quot;&gt;175914&lt;/font&gt;&lt;/b&gt;&lt;br&gt;&lt;/font&gt;" style="rounded=1;whiteSpace=wrap;html=1;fillColor=#959595;strokeColor=#23445d;" parent="217" vertex="1">
                    <mxGeometry x="481" y="244.70000000000005" width="170" height="70" as="geometry"/>
                </mxCell>
                <mxCell id="155" value="&lt;font&gt;&lt;b style=&quot;&quot;&gt;&lt;font style=&quot;color: rgb(255, 255, 255);&quot;&gt;152906&lt;br&gt;&lt;/font&gt;&lt;/b&gt;&lt;br&gt;&lt;font style=&quot;color: rgb(255, 255, 255);&quot;&gt;ECOA / Flood / Warehouse&lt;/font&gt;&lt;/font&gt;" style="rounded=1;whiteSpace=wrap;html=1;fillColor=#959595;strokeColor=#23445d;" parent="217" vertex="1">
                    <mxGeometry x="481" y="325.81999999999994" width="170" height="70" as="geometry"/>
                </mxCell>
                <mxCell id="156" value="&lt;font&gt;&lt;b style=&quot;&quot;&gt;&lt;font style=&quot;color: rgb(255, 255, 255);&quot;&gt;163816&lt;br&gt;&lt;/font&gt;&lt;/b&gt;&lt;font style=&quot;color: rgb(255, 255, 255);&quot;&gt;&lt;br&gt;IBS SAS Fraud &lt;br&gt;Management Platform&lt;/font&gt;&lt;/font&gt;" style="rounded=1;whiteSpace=wrap;html=1;fillColor=#959595;strokeColor=#23445d;" parent="217" vertex="1">
                    <mxGeometry x="481" y="409.70000000000005" width="170" height="70" as="geometry"/>
                </mxCell>
                <mxCell id="157" value="&lt;font&gt;&lt;b style=&quot;&quot;&gt;&lt;font style=&quot;color: rgb(255, 255, 255);&quot;&gt;168108&lt;br&gt;&lt;/font&gt;&lt;/b&gt;&lt;span style=&quot;color: rgb(255, 255, 255);&quot;&gt;&lt;br&gt;PIL&lt;/span&gt;&lt;br&gt;&lt;font style=&quot;color: rgb(255, 255, 255);&quot;&gt;Credit Initiation Originations&lt;br&gt;&lt;/font&gt;&lt;/font&gt;" style="rounded=1;whiteSpace=wrap;html=1;fillColor=#959595;strokeColor=#23445d;" parent="217" vertex="1">
                    <mxGeometry x="481" y="494.70000000000005" width="170" height="70" as="geometry"/>
                </mxCell>
                <mxCell id="158" value="" style="rounded=1;whiteSpace=wrap;html=1;fillColor=#E3F9E2;strokeColor=#82b366;dashed=1;fontStyle=0" parent="217" vertex="1">
                    <mxGeometry x="210" y="640" width="1070" height="580" as="geometry"/>
                </mxCell>
                <mxCell id="159" value="&lt;font style=&quot;color: rgb(0, 0, 255);&quot;&gt;&lt;b&gt;&lt;font style=&quot;font-size: 13px;&quot;&gt;Wealth&lt;/font&gt;&lt;/b&gt;&lt;br&gt;&lt;/font&gt;" style="text;html=1;align=center;verticalAlign=middle;whiteSpace=wrap;rounded=0;" parent="217" vertex="1">
                    <mxGeometry x="230" y="662.88" width="70" height="30" as="geometry"/>
                </mxCell>
                <mxCell id="160" value="&lt;font&gt;&lt;b style=&quot;&quot;&gt;&lt;font style=&quot;color: rgb(255, 255, 255);&quot;&gt;163454&lt;br&gt;&lt;/font&gt;&lt;/b&gt;&lt;br&gt;&lt;font style=&quot;color: rgb(255, 255, 255);&quot;&gt;NextGen AML&lt;/font&gt;&lt;/font&gt;" style="rounded=1;whiteSpace=wrap;html=1;fillColor=#959595;strokeColor=#23445d;" parent="217" vertex="1">
                    <mxGeometry x="290" y="693.9999999999999" width="170" height="70" as="geometry"/>
                </mxCell>
                <mxCell id="161" value="&lt;font&gt;&lt;b style=&quot;&quot;&gt;&lt;font style=&quot;color: rgb(255, 255, 255);&quot;&gt;164694&lt;br&gt;&lt;/font&gt;&lt;/b&gt;&lt;font style=&quot;color: rgb(255, 255, 255);&quot;&gt;&lt;br&gt;ESMS UAE &amp;amp; Russia&lt;/font&gt;&lt;/font&gt;" style="rounded=1;whiteSpace=wrap;html=1;fillColor=#959595;strokeColor=#23445d;" parent="217" vertex="1">
                    <mxGeometry x="290" y="779.13" width="170" height="70" as="geometry"/>
                </mxCell>
                <mxCell id="162" value="&lt;font&gt;&lt;b style=&quot;&quot;&gt;&lt;font style=&quot;color: rgb(255, 255, 255);&quot;&gt;174407&lt;br&gt;&lt;/font&gt;&lt;/b&gt;&lt;br&gt;&lt;font style=&quot;color: rgb(255, 255, 255);&quot;&gt;Inview&lt;/font&gt;&lt;/font&gt;" style="rounded=1;whiteSpace=wrap;html=1;fillColor=#959595;strokeColor=#23445d;" parent="217" vertex="1">
                    <mxGeometry x="290" y="862.88" width="170" height="70" as="geometry"/>
                </mxCell>
                <mxCell id="163" value="&lt;font&gt;&lt;font&gt;&lt;font&gt;&lt;b style=&quot;&quot;&gt;&lt;font style=&quot;color: rgb(255, 255, 255);&quot;&gt;154814&lt;/font&gt;&lt;/b&gt;&lt;br&gt;&lt;/font&gt;&lt;br&gt;&lt;font style=&quot;color: rgb(255, 255, 255);&quot;&gt;OneSource Americas&lt;/font&gt;&lt;/font&gt;&lt;/font&gt;" style="rounded=1;whiteSpace=wrap;html=1;fillColor=#959595;strokeColor=#23445d;" parent="217" vertex="1">
                    <mxGeometry x="290" y="943.9999999999999" width="170" height="70" as="geometry"/>
                </mxCell>
                <mxCell id="164" value="&lt;font&gt;&lt;b style=&quot;&quot;&gt;&lt;font style=&quot;color: rgb(255, 255, 255);&quot;&gt;158642&lt;br&gt;&lt;/font&gt;&lt;/b&gt;&lt;font style=&quot;color: rgb(255, 255, 255);&quot;&gt;&lt;br&gt;TPS2&lt;/font&gt;&lt;/font&gt;" style="rounded=1;whiteSpace=wrap;html=1;fillColor=#959595;strokeColor=#23445d;" parent="217" vertex="1">
                    <mxGeometry x="290" y="1027.88" width="170" height="70" as="geometry"/>
                </mxCell>
                <mxCell id="165" value="&lt;font&gt;&lt;b style=&quot;&quot;&gt;&lt;font style=&quot;color: rgb(255, 255, 255);&quot;&gt;162648&lt;br&gt;&lt;/font&gt;&lt;/b&gt;&lt;br&gt;&lt;font style=&quot;color: rgb(255, 255, 255);&quot;&gt;Fi-Tek GWES&lt;/font&gt;&lt;/font&gt;" style="rounded=1;whiteSpace=wrap;html=1;fillColor=#959595;strokeColor=#23445d;" parent="217" vertex="1">
                    <mxGeometry x="290" y="1112.88" width="170" height="70" as="geometry"/>
                </mxCell>
                <mxCell id="166" value="&lt;font&gt;&lt;b style=&quot;&quot;&gt;&lt;font style=&quot;color: rgb(255, 255, 255);&quot;&gt;166190&lt;br&gt;&lt;/font&gt;&lt;/b&gt;&lt;br&gt;&lt;font style=&quot;color: rgb(255, 255, 255);&quot;&gt;ESMS APAC&lt;/font&gt;&lt;/font&gt;" style="rounded=1;whiteSpace=wrap;html=1;fillColor=#959595;strokeColor=#23445d;" parent="217" vertex="1">
                    <mxGeometry x="481" y="693.9999999999999" width="170" height="70" as="geometry"/>
                </mxCell>
                <mxCell id="167" value="&lt;font&gt;&lt;b style=&quot;&quot;&gt;&lt;font style=&quot;color: rgb(255, 255, 255);&quot;&gt;168988&lt;br&gt;&lt;/font&gt;&lt;/b&gt;&lt;font style=&quot;color: rgb(255, 255, 255);&quot;&gt;&lt;br&gt;CPPD&lt;/font&gt;&lt;/font&gt;" style="rounded=1;whiteSpace=wrap;html=1;fillColor=#959595;strokeColor=#23445d;" parent="217" vertex="1">
                    <mxGeometry x="481" y="779.13" width="170" height="70" as="geometry"/>
                </mxCell>
                <mxCell id="168" value="&lt;font&gt;&lt;b style=&quot;&quot;&gt;&lt;font style=&quot;color: rgb(255, 255, 255);&quot;&gt;150634&lt;br&gt;&lt;/font&gt;&lt;/b&gt;&lt;br&gt;&lt;font style=&quot;color: rgb(255, 255, 255);&quot;&gt;In View Servicing Platform&lt;/font&gt;&lt;/font&gt;" style="rounded=1;whiteSpace=wrap;html=1;fillColor=#959595;strokeColor=#23445d;" parent="217" vertex="1">
                    <mxGeometry x="481" y="870.5" width="170" height="70" as="geometry"/>
                </mxCell>
                <mxCell id="169" value="&lt;font&gt;&lt;b style=&quot;&quot;&gt;&lt;font style=&quot;color: rgb(255, 255, 255);&quot;&gt;156821&lt;br&gt;&lt;/font&gt;&lt;/b&gt;&lt;br&gt;&lt;font style=&quot;color: rgb(255, 255, 255);&quot;&gt;&lt;span style=&quot;color: rgb(255, 255, 255);&quot;&gt;OneSource Europe&lt;/span&gt;&lt;/font&gt;&lt;/font&gt;" style="rounded=1;whiteSpace=wrap;html=1;fillColor=#959595;strokeColor=#23445d;" parent="217" vertex="1">
                    <mxGeometry x="481" y="943.9999999999999" width="170" height="70" as="geometry"/>
                </mxCell>
                <mxCell id="170" value="&lt;font&gt;&lt;b style=&quot;&quot;&gt;&lt;font style=&quot;color: rgb(255, 255, 255);&quot;&gt;161634&lt;br&gt;&lt;/font&gt;&lt;/b&gt;&lt;font style=&quot;color: rgb(255, 255, 255);&quot;&gt;&lt;br&gt;NextX360&lt;/font&gt;&lt;/font&gt;" style="rounded=1;whiteSpace=wrap;html=1;fillColor=#959595;strokeColor=#23445d;" parent="217" vertex="1">
                    <mxGeometry x="481" y="1027.88" width="170" height="70" as="geometry"/>
                </mxCell>
                <mxCell id="171" value="&lt;font&gt;&lt;b style=&quot;&quot;&gt;&lt;font style=&quot;color: rgb(255, 255, 255);&quot;&gt;163510&lt;br&gt;&lt;/font&gt;&lt;/b&gt;&lt;span style=&quot;color: rgb(255, 255, 255);&quot;&gt;&lt;br&gt;Global Citi Trust Platform&lt;/span&gt;&lt;font style=&quot;color: rgb(255, 255, 255);&quot;&gt;&lt;br&gt;&lt;/font&gt;&lt;/font&gt;" style="rounded=1;whiteSpace=wrap;html=1;fillColor=#959595;strokeColor=#23445d;" parent="217" vertex="1">
                    <mxGeometry x="481" y="1112.88" width="170" height="70" as="geometry"/>
                </mxCell>
                <mxCell id="172" value="&lt;font&gt;&lt;b style=&quot;&quot;&gt;&lt;font style=&quot;color: rgb(255, 255, 255);&quot;&gt;169912&lt;br&gt;&lt;/font&gt;&lt;/b&gt;&lt;br&gt;&lt;font style=&quot;color: rgb(255, 255, 255);&quot;&gt;Wolters Kluwers&lt;/font&gt;&lt;/font&gt;" style="rounded=1;whiteSpace=wrap;html=1;fillColor=#959595;strokeColor=#23445d;" parent="217" vertex="1">
                    <mxGeometry x="670" y="693.9999999999999" width="170" height="70" as="geometry"/>
                </mxCell>
                <mxCell id="173" value="&lt;font&gt;&lt;b style=&quot;&quot;&gt;&lt;font style=&quot;color: rgb(255, 255, 255);&quot;&gt;173899&lt;br&gt;&lt;/font&gt;&lt;/b&gt;&lt;font style=&quot;color: rgb(255, 255, 255);&quot;&gt;&lt;br&gt;CPB Salesforce&lt;/font&gt;&lt;/font&gt;" style="rounded=1;whiteSpace=wrap;html=1;fillColor=#959595;strokeColor=#23445d;" parent="217" vertex="1">
                    <mxGeometry x="670" y="779.13" width="170" height="70" as="geometry"/>
                </mxCell>
                <mxCell id="174" value="&lt;font&gt;&lt;b style=&quot;&quot;&gt;&lt;font style=&quot;color: rgb(255, 255, 255);&quot;&gt;146184&lt;br&gt;&lt;/font&gt;&lt;/b&gt;&lt;br&gt;&lt;font style=&quot;color: rgb(255, 255, 255);&quot;&gt;Insights Hub NAM&lt;/font&gt;&lt;/font&gt;" style="rounded=1;whiteSpace=wrap;html=1;fillColor=#959595;strokeColor=#23445d;" parent="217" vertex="1">
                    <mxGeometry x="670" y="862.88" width="170" height="70" as="geometry"/>
                </mxCell>
                <mxCell id="175" value="&lt;font&gt;&lt;font&gt;&lt;b style=&quot;&quot;&gt;&lt;font style=&quot;color: rgb(255, 255, 255);&quot;&gt;151129&lt;/font&gt;&lt;/b&gt;&lt;br&gt;&lt;br&gt;&lt;font style=&quot;color: rgb(255, 255, 255);&quot;&gt;Insights Hub EMEA&lt;/font&gt;&lt;/font&gt;&lt;/font&gt;" style="rounded=1;whiteSpace=wrap;html=1;fillColor=#959595;strokeColor=#23445d;" parent="217" vertex="1">
                    <mxGeometry x="670" y="943.9999999999999" width="170" height="70" as="geometry"/>
                </mxCell>
                <mxCell id="176" value="&lt;font&gt;&lt;b style=&quot;&quot;&gt;&lt;font style=&quot;color: rgb(255, 255, 255);&quot;&gt;170834&lt;br&gt;&lt;/font&gt;&lt;/b&gt;&lt;font style=&quot;color: rgb(255, 255, 255);&quot;&gt;&lt;br&gt;CPB Party Master&lt;/font&gt;&lt;/font&gt;" style="rounded=1;whiteSpace=wrap;html=1;fillColor=#959595;strokeColor=#23445d;" parent="217" vertex="1">
                    <mxGeometry x="670" y="1027.88" width="170" height="70" as="geometry"/>
                </mxCell>
                <mxCell id="177" value="&lt;font&gt;&lt;b style=&quot;&quot;&gt;&lt;font style=&quot;color: rgb(255, 255, 255);&quot;&gt;171568&lt;br&gt;&lt;/font&gt;&lt;/b&gt;&lt;br&gt;&lt;font style=&quot;color: rgb(255, 255, 255);&quot;&gt;CPB Party Master EMEA&lt;/font&gt;&lt;/font&gt;" style="rounded=1;whiteSpace=wrap;html=1;fillColor=#959595;strokeColor=#23445d;" parent="217" vertex="1">
                    <mxGeometry x="670" y="1112.88" width="170" height="70" as="geometry"/>
                </mxCell>
                <mxCell id="178" value="&lt;font&gt;&lt;b style=&quot;&quot;&gt;&lt;font style=&quot;color: rgb(255, 255, 255);&quot;&gt;172205&lt;br&gt;&lt;/font&gt;&lt;/b&gt;&lt;br&gt;&lt;font style=&quot;color: rgb(255, 255, 255);&quot;&gt;ALS&lt;/font&gt;&lt;/font&gt;" style="rounded=1;whiteSpace=wrap;html=1;fillColor=#959595;strokeColor=#23445d;" parent="217" vertex="1">
                    <mxGeometry x="861" y="693.9999999999999" width="170" height="70" as="geometry"/>
                </mxCell>
                <mxCell id="179" value="&lt;font&gt;&lt;b style=&quot;&quot;&gt;&lt;font style=&quot;color: rgb(255, 255, 255);&quot;&gt;174580&lt;br&gt;&lt;/font&gt;&lt;/b&gt;&lt;font style=&quot;color: rgb(255, 255, 255);&quot;&gt;&lt;br&gt;CPB Inview Onboarding&lt;/font&gt;&lt;/font&gt;" style="rounded=1;whiteSpace=wrap;html=1;fillColor=#959595;strokeColor=#23445d;" parent="217" vertex="1">
                    <mxGeometry x="861" y="779.13" width="170" height="70" as="geometry"/>
                </mxCell>
                <mxCell id="180" value="&lt;font&gt;&lt;b style=&quot;&quot;&gt;&lt;font style=&quot;color: rgb(255, 255, 255);&quot;&gt;148342&lt;br&gt;&lt;/font&gt;&lt;/b&gt;&lt;br&gt;&lt;font style=&quot;color: rgb(255, 255, 255);&quot;&gt;Insights Hub APAC&lt;/font&gt;&lt;/font&gt;" style="rounded=1;whiteSpace=wrap;html=1;fillColor=#959595;strokeColor=#23445d;" parent="217" vertex="1">
                    <mxGeometry x="861" y="862.88" width="170" height="70" as="geometry"/>
                </mxCell>
                <mxCell id="181" value="&lt;font&gt;&lt;b style=&quot;&quot;&gt;&lt;font style=&quot;color: rgb(255, 255, 255);&quot;&gt;166153&lt;br&gt;&lt;/font&gt;&lt;/b&gt;&lt;br&gt;&lt;font style=&quot;color: rgb(255, 255, 255);&quot;&gt;CIM&lt;/font&gt;&lt;/font&gt;" style="rounded=1;whiteSpace=wrap;html=1;fillColor=#959595;strokeColor=#23445d;" parent="217" vertex="1">
                    <mxGeometry x="861" y="943.9999999999999" width="170" height="70" as="geometry"/>
                </mxCell>
                <mxCell id="182" value="&lt;font&gt;&lt;b style=&quot;&quot;&gt;&lt;font style=&quot;color: rgb(255, 255, 255);&quot;&gt;171031&lt;br&gt;&lt;/font&gt;&lt;/b&gt;&lt;font style=&quot;color: rgb(255, 255, 255);&quot;&gt;&lt;br&gt;CPB Party Master APAC&lt;/font&gt;&lt;/font&gt;" style="rounded=1;whiteSpace=wrap;html=1;fillColor=#959595;strokeColor=#23445d;" parent="217" vertex="1">
                    <mxGeometry x="861" y="1027.88" width="170" height="70" as="geometry"/>
                </mxCell>
                <mxCell id="183" value="&lt;font&gt;&lt;b style=&quot;&quot;&gt;&lt;font style=&quot;color: rgb(255, 255, 255);&quot;&gt;173523&lt;br&gt;&lt;/font&gt;&lt;/b&gt;&lt;span style=&quot;color: rgb(255, 255, 255);&quot;&gt;&lt;br&gt;CPPB NAM&lt;/span&gt;&lt;font style=&quot;color: rgb(255, 255, 255);&quot;&gt;&lt;br&gt;&lt;/font&gt;&lt;/font&gt;" style="rounded=1;whiteSpace=wrap;html=1;fillColor=#959595;strokeColor=#23445d;" parent="217" vertex="1">
                    <mxGeometry x="861" y="1112.88" width="170" height="70" as="geometry"/>
                </mxCell>
                <mxCell id="184" value="&lt;font&gt;&lt;b style=&quot;&quot;&gt;&lt;font style=&quot;color: rgb(255, 255, 255);&quot;&gt;173600&lt;br&gt;&lt;/font&gt;&lt;/b&gt;&lt;br&gt;&lt;font style=&quot;color: rgb(255, 255, 255);&quot;&gt;CPPB EMEA&lt;/font&gt;&lt;/font&gt;" style="rounded=1;whiteSpace=wrap;html=1;fillColor=#959595;strokeColor=#23445d;" parent="217" vertex="1">
                    <mxGeometry x="1050" y="693.9999999999999" width="170" height="70" as="geometry"/>
                </mxCell>
                <mxCell id="185" value="&lt;font&gt;&lt;b style=&quot;&quot;&gt;&lt;font style=&quot;color: rgb(255, 255, 255);&quot;&gt;173601&lt;br&gt;&lt;/font&gt;&lt;/b&gt;&lt;font style=&quot;color: rgb(255, 255, 255);&quot;&gt;&lt;br&gt;CPPB EMEA&lt;/font&gt;&lt;/font&gt;" style="rounded=1;whiteSpace=wrap;html=1;fillColor=#959595;strokeColor=#23445d;" parent="217" vertex="1">
                    <mxGeometry x="1050" y="779.13" width="170" height="70" as="geometry"/>
                </mxCell>
                <mxCell id="186" value="" style="rounded=1;whiteSpace=wrap;html=1;fillColor=#E3F9E2;strokeColor=#d79b00;dashed=1;" parent="217" vertex="1">
                    <mxGeometry x="1360" y="31.819999999999936" width="500" height="864" as="geometry"/>
                </mxCell>
                <mxCell id="187" value="&lt;font style=&quot;color: rgb(0, 0, 255);&quot;&gt;&lt;b&gt;&lt;font&gt;Unknown&lt;/font&gt;&lt;/b&gt;&lt;br&gt;&lt;/font&gt;" style="text;html=1;align=center;verticalAlign=middle;whiteSpace=wrap;rounded=0;fontSize=14;" parent="217" vertex="1">
                    <mxGeometry x="1381" y="72.11999999999989" width="70" height="30" as="geometry"/>
                </mxCell>
                <mxCell id="188" value="&lt;font&gt;&lt;b style=&quot;&quot;&gt;&lt;font style=&quot;color: rgb(255, 255, 255);&quot;&gt;LMS&lt;br&gt;&lt;/font&gt;&lt;/b&gt;&lt;br&gt;&lt;font style=&quot;color: rgb(255, 255, 255);&quot;&gt;Learning Management &lt;br&gt;System&lt;/font&gt;&lt;/font&gt;" style="rounded=1;whiteSpace=wrap;html=1;fillColor=#959595;strokeColor=#23445d;" parent="217" vertex="1">
                    <mxGeometry x="1450" y="101" width="170" height="70" as="geometry"/>
                </mxCell>
                <mxCell id="189" value="&lt;font&gt;&lt;b style=&quot;&quot;&gt;&lt;font style=&quot;color: rgb(255, 255, 255);&quot;&gt;SIRT&lt;br&gt;&lt;/font&gt;&lt;/b&gt;&lt;font style=&quot;color: rgb(255, 255, 255);&quot;&gt;&lt;br&gt;Information Security &lt;br&gt;Incident Management&lt;/font&gt;&lt;/font&gt;" style="rounded=1;whiteSpace=wrap;html=1;fillColor=#959595;strokeColor=#23445d;" parent="217" vertex="1">
                    <mxGeometry x="1450" y="186.1300000000001" width="170" height="70" as="geometry"/>
                </mxCell>
                <mxCell id="190" value="&lt;font&gt;&lt;b style=&quot;&quot;&gt;&lt;font style=&quot;color: rgb(255, 255, 255);&quot;&gt;164283&lt;br&gt;&lt;/font&gt;&lt;/b&gt;&lt;br&gt;&lt;font style=&quot;color: rgb(255, 255, 255);&quot;&gt;CitiKYC&lt;/font&gt;&lt;/font&gt;" style="rounded=1;whiteSpace=wrap;html=1;fillColor=#959595;strokeColor=#23445d;" parent="217" vertex="1">
                    <mxGeometry x="1450" y="269.8800000000001" width="170" height="70" as="geometry"/>
                </mxCell>
                <mxCell id="191" value="&lt;font&gt;&lt;font&gt;&lt;font&gt;&lt;b style=&quot;&quot;&gt;&lt;font style=&quot;color: rgb(255, 255, 255);&quot;&gt;165417&lt;/font&gt;&lt;/b&gt;&lt;br&gt;&lt;/font&gt;&lt;br&gt;&lt;font style=&quot;color: rgb(255, 255, 255);&quot;&gt;CASP&lt;/font&gt;&lt;/font&gt;&lt;/font&gt;" style="rounded=1;whiteSpace=wrap;html=1;fillColor=#959595;strokeColor=#23445d;" parent="217" vertex="1">
                    <mxGeometry x="1450" y="351" width="170" height="70" as="geometry"/>
                </mxCell>
                <mxCell id="192" value="&lt;font&gt;&lt;b style=&quot;&quot;&gt;&lt;font style=&quot;color: rgb(255, 255, 255);&quot;&gt;168337&lt;br&gt;&lt;/font&gt;&lt;/b&gt;&lt;font style=&quot;color: rgb(255, 255, 255);&quot;&gt;&lt;br&gt;Genesis Retail&lt;/font&gt;&lt;/font&gt;" style="rounded=1;whiteSpace=wrap;html=1;fillColor=#959595;strokeColor=#23445d;" parent="217" vertex="1">
                    <mxGeometry x="1450" y="434.8800000000001" width="170" height="70" as="geometry"/>
                </mxCell>
                <mxCell id="193" value="&lt;font&gt;&lt;b style=&quot;&quot;&gt;&lt;font style=&quot;color: rgb(255, 255, 255);&quot;&gt;171891&lt;br&gt;&lt;/font&gt;&lt;/b&gt;&lt;br&gt;&lt;font style=&quot;color: rgb(255, 255, 255);&quot;&gt;Archer CISO&lt;/font&gt;&lt;/font&gt;" style="rounded=1;whiteSpace=wrap;html=1;fillColor=#959595;strokeColor=#23445d;" parent="217" vertex="1">
                    <mxGeometry x="1450" y="519.8800000000001" width="170" height="70" as="geometry"/>
                </mxCell>
                <mxCell id="194" value="&lt;font&gt;&lt;b style=&quot;&quot;&gt;&lt;font style=&quot;color: rgb(255, 255, 255);&quot;&gt;167348&lt;br&gt;&lt;/font&gt;&lt;/b&gt;&lt;br&gt;&lt;font style=&quot;color: rgb(255, 255, 255);&quot;&gt;CLEMS&lt;/font&gt;&lt;/font&gt;" style="rounded=1;whiteSpace=wrap;html=1;fillColor=#959595;strokeColor=#23445d;" parent="217" vertex="1">
                    <mxGeometry x="1650" y="361" width="170" height="70" as="geometry"/>
                </mxCell>
                <mxCell id="195" value="&lt;font&gt;&lt;b style=&quot;&quot;&gt;&lt;font style=&quot;color: rgb(255, 255, 255);&quot;&gt;171494&lt;br&gt;&lt;/font&gt;&lt;/b&gt;&lt;font style=&quot;color: rgb(255, 255, 255);&quot;&gt;&lt;br&gt;CITI Screening &lt;br&gt;CSAW-T&lt;/font&gt;&lt;/font&gt;" style="rounded=1;whiteSpace=wrap;html=1;fillColor=#959595;strokeColor=#23445d;" parent="217" vertex="1">
                    <mxGeometry x="1650" y="446.1300000000001" width="170" height="70" as="geometry"/>
                </mxCell>
                <mxCell id="196" value="&lt;font&gt;&lt;b style=&quot;&quot;&gt;&lt;font style=&quot;color: rgb(255, 255, 255);&quot;&gt;174635&lt;br&gt;&lt;/font&gt;&lt;/b&gt;&lt;br&gt;&lt;font style=&quot;color: rgb(255, 255, 255);&quot;&gt;Archer REG O&lt;/font&gt;&lt;/font&gt;" style="rounded=1;whiteSpace=wrap;html=1;fillColor=#959595;strokeColor=#23445d;" parent="217" vertex="1">
                    <mxGeometry x="1650" y="529.8800000000001" width="170" height="70" as="geometry"/>
                </mxCell>
                <mxCell id="197" value="&lt;font&gt;&lt;b style=&quot;&quot;&gt;&lt;font style=&quot;color: rgb(255, 255, 255);&quot;&gt;178410&lt;br&gt;&lt;/font&gt;&lt;/b&gt;&lt;br&gt;&lt;font style=&quot;color: rgb(255, 255, 255);&quot;&gt;GEMS Global Event Management System&lt;/font&gt;&lt;/font&gt;" style="rounded=1;whiteSpace=wrap;html=1;fillColor=#959595;strokeColor=#23445d;" parent="217" vertex="1">
                    <mxGeometry x="1650" y="611" width="170" height="70" as="geometry"/>
                </mxCell>
                <mxCell id="198" value="&lt;font&gt;&lt;b style=&quot;&quot;&gt;&lt;font style=&quot;color: rgb(255, 255, 255);&quot;&gt;170401&lt;br&gt;&lt;/font&gt;&lt;/b&gt;&lt;font style=&quot;color: rgb(255, 255, 255);&quot;&gt;&lt;br&gt;TPRAP&lt;/font&gt;&lt;/font&gt;" style="rounded=1;whiteSpace=wrap;html=1;fillColor=#959595;strokeColor=#23445d;" parent="217" vertex="1">
                    <mxGeometry x="1650" y="694.8800000000001" width="170" height="70" as="geometry"/>
                </mxCell>
                <mxCell id="200" value="&lt;font&gt;&lt;b style=&quot;&quot;&gt;&lt;font style=&quot;color: rgb(255, 255, 255);&quot;&gt;174776&lt;br&gt;&lt;/font&gt;&lt;/b&gt;&lt;br&gt;&lt;font style=&quot;color: rgb(255, 255, 255);&quot;&gt;Archer MFA SAM&lt;/font&gt;&lt;/font&gt;" style="rounded=1;whiteSpace=wrap;html=1;fillColor=#959595;strokeColor=#23445d;" parent="217" vertex="1">
                    <mxGeometry x="1450" y="607" width="170" height="70" as="geometry"/>
                </mxCell>
                <mxCell id="201" value="&lt;font&gt;&lt;b style=&quot;&quot;&gt;&lt;font style=&quot;color: rgb(255, 255, 255);&quot;&gt;165241&lt;br&gt;&lt;/font&gt;&lt;/b&gt;&lt;font style=&quot;color: rgb(255, 255, 255);&quot;&gt;&lt;br&gt;CSAW-C&lt;/font&gt;&lt;/font&gt;" style="rounded=1;whiteSpace=wrap;html=1;fillColor=#959595;strokeColor=#23445d;" parent="217" vertex="1">
                    <mxGeometry x="1450" y="692.13" width="170" height="70" as="geometry"/>
                </mxCell>
                <mxCell id="202" value="&lt;font&gt;&lt;b style=&quot;&quot;&gt;&lt;font style=&quot;color: rgb(255, 255, 255);&quot;&gt;176046&lt;br&gt;&lt;/font&gt;&lt;/b&gt;&lt;br&gt;&lt;font style=&quot;color: rgb(255, 255, 255);&quot;&gt;UNO&lt;/font&gt;&lt;/font&gt;" style="rounded=1;whiteSpace=wrap;html=1;fillColor=#959595;strokeColor=#23445d;" parent="217" vertex="1">
                    <mxGeometry x="1450" y="775.88" width="170" height="70" as="geometry"/>
                </mxCell>
                <mxCell id="203" value="&lt;font&gt;&lt;font&gt;&lt;b style=&quot;&quot;&gt;&lt;font style=&quot;color: rgb(255, 255, 255);&quot;&gt;164596&lt;/font&gt;&lt;/b&gt;&lt;br&gt;&lt;br&gt;&lt;font style=&quot;color: rgb(255, 255, 255);&quot;&gt;ABPA Anti Bribery &lt;br&gt;Pre Approval&lt;/font&gt;&lt;/font&gt;&lt;/font&gt;" style="rounded=1;whiteSpace=wrap;html=1;fillColor=#959595;strokeColor=#23445d;" parent="217" vertex="1">
                    <mxGeometry x="1650" y="101" width="170" height="70" as="geometry"/>
                </mxCell>
                <mxCell id="204" value="&lt;font&gt;&lt;b style=&quot;&quot;&gt;&lt;font style=&quot;color: rgb(255, 255, 255);&quot;&gt;161602&lt;br&gt;&lt;/font&gt;&lt;/b&gt;&lt;font style=&quot;color: rgb(255, 255, 255);&quot;&gt;&lt;br&gt;Soverign Optima&lt;/font&gt;&lt;/font&gt;" style="rounded=1;whiteSpace=wrap;html=1;fillColor=#959595;strokeColor=#23445d;" parent="217" vertex="1">
                    <mxGeometry x="1650" y="184.8800000000001" width="170" height="70" as="geometry"/>
                </mxCell>
                <mxCell id="205" value="&lt;font&gt;&lt;b style=&quot;&quot;&gt;&lt;font style=&quot;color: rgb(255, 255, 255);&quot;&gt;164655&lt;br&gt;&lt;/font&gt;&lt;/b&gt;&lt;br&gt;&lt;font style=&quot;color: rgb(255, 255, 255);&quot;&gt;FINRA&lt;/font&gt;&lt;/font&gt;" style="rounded=1;whiteSpace=wrap;html=1;fillColor=#959595;strokeColor=#23445d;" parent="217" vertex="1">
                    <mxGeometry x="1650" y="269.8800000000001" width="170" height="70" as="geometry"/>
                </mxCell>
                <mxCell id="218" value="" style="endArrow=classic;html=1;exitX=0;exitY=0.5;exitDx=0;exitDy=0;entryX=0.5;entryY=0;entryDx=0;entryDy=0;entryPerimeter=0;edgeStyle=orthogonalEdgeStyle;" edge="1" parent="1" source="113" target="110">
                    <mxGeometry width="50" height="50" relative="1" as="geometry">
                        <mxPoint x="1550" y="-370" as="sourcePoint"/>
                        <mxPoint x="1490" y="-50" as="targetPoint"/>
                    </mxGeometry>
                </mxCell>
            </root>
        </mxGraphModel>
    </diagram>
</mxfile>